<svg xmlns="http://www.w3.org/2000/svg" viewBox="0 0 1536 1536"><g id="Layer_2" data-name="Layer 2"><g id="Layer_1-2" data-name="Layer 1"><g id="Layer_1-3" data-name="Layer_1"><rect width="1536" height="1536" fill="none"/><rect width="1536" height="1536" fill="none"/><rect width="1536" height="1536" fill="none"/><path d="M0,785.05C0,626,104.27,497,232.88,497c97.43,0,180.88,74,215.63,179.07H921.12a44.77,44.77,0,0,1,33.07,14.58l64.73,64.71a44.76,44.76,0,0,1,0,60.35l-64.73,63.71a44.8,44.8,0,0,1-33.07,14.61H873a44.87,44.87,0,0,1-31.66-13.12l-32.56-32.56L776.2,880.92A44.85,44.85,0,0,1,744.54,894H688.1a44.8,44.8,0,0,1-31.65-13.12L623.9,848.36l-32.56,32.56A44.75,44.75,0,0,1,559.69,894H448.51c-34.76,105-118.2,179.06-215.64,179.06-128.6,0-232.87-129-232.87-288Zm170.36,94.43c34.53,0,62.52-42.28,62.52-94.42s-28-94.43-62.52-94.42-62.53,42.27-62.53,94.41S135.82,879.48,170.36,879.48ZM1381,95.76H657.15c-85.91,0-155.33,69.41-155.33,155V509.3H605.38V250.76a51.55,51.55,0,0,1,51.77-51.45H1381a51.6,51.6,0,0,1,51.78,51.45V1284.91a51.84,51.84,0,0,1-51.78,51.77H657.15a51.79,51.79,0,0,1-51.77-51.77V1026.37H501.82v258.54a155.16,155.16,0,0,0,155.33,155.32H1381c85.58,0,155-69.41,155-155.32V250.76A155,155,0,0,0,1381,95.76Z" fill="#fff" fill-rule="evenodd"/></g></g></g></svg>