<svg width="0" height="0" class="hidden">
  <symbol xmlns="http://www.w3.org/2000/svg" viewBox="0 0 512.86 1111.23" id="samsung">
    <path d="M266.61,36.17a11.56,11.56,0,1,1-11.55-11.56A11.55,11.55,0,0,1,266.61,36.17Z" fill="#1a191c"></path>
    <path d="M262.15,36.17a7.1,7.1,0,1,1-7.09-7.1A7.09,7.09,0,0,1,262.15,36.17Z"></path>
    <path
      d="M510.7,343.09a2.16,2.16,0,0,0,2.16-2.15V212.5a2.16,2.16,0,0,0-2.16-2.15h-.59V48.49a48.94,48.94,0,0,0-9.65-29.23A47,47,0,0,0,462.76,0H47.35A47,47,0,0,0,9.82,19,48.93,48.93,0,0,0,0,48.49V1062.74c0,26.66,21.3,48.49,47.35,48.49H462.94c.35,0,.7,0,1.06,0s.87,0,1.29,0c.74,0,1.47-.11,2.19-.18h.14a47.15,47.15,0,0,0,32.84-18.77l-.11-.09a48.94,48.94,0,0,0,9.76-29.37V477.05H511a1.91,1.91,0,0,0,1.91-1.9V412.23a1.91,1.91,0,0,0-1.91-1.9h-.84V343.09Zm-11.92,700.28a45.44,45.44,0,0,1-45.3,45.3H59.26a45.43,45.43,0,0,1-45.3-45.3V59.63a45.44,45.44,0,0,1,45.3-45.31H453.48a45.44,45.44,0,0,1,45.3,45.31Z"
      fill="#abb2b2"></path>
    <path
      d="M461.1,7.37H49C20.94,7.37,3.41,27.42,3.41,53.8V1057.25c0,26.76,15.72,46.6,51.65,46.6H455c35.94,0,51.66-19.84,51.66-46.6V53.8C506.7,27.42,489.17,7.37,461.1,7.37Zm37.68,1036a45.44,45.44,0,0,1-45.3,45.3H59.26a45.43,45.43,0,0,1-45.3-45.3V59.63a45.44,45.44,0,0,1,45.3-45.31H453.48a45.44,45.44,0,0,1,45.3,45.31Z"
      fill="#010101"></path>
  </symbol>
  <symbol id="iphone14" xmlns="http://www.w3.org/2000/svg" xmlns:xlink="http://www.w3.org/1999/xlink"
    viewBox="0 0 188.31 387.74">
    <rect x="186.86" y="81.62" width="0.46" height="41.26" stroke-width="2" stroke="#666" stroke-linecap="round"
      stroke-linejoin="round" fill="none"></rect>
    <rect x="1.55" y="117.14" width="0.46" height="27.23" stroke-width="2" stroke="#666" stroke-linecap="round"
      stroke-linejoin="round" fill="none"></rect>
    <rect x="1.33" y="81.64" width="0.46" height="27.23" stroke-width="2" stroke="#666" stroke-linecap="round"
      stroke-linejoin="round" fill="none"></rect>
    <rect x="1" y="48.11" width="0.46" height="15.13" stroke-width="2" stroke="#666" stroke-linecap="round"
      stroke-linejoin="round" fill="none"></rect>
    <path
      d="M316.9,56.13H183.74a26.28,26.28,0,0,0-26.28,26.28V417.59a26.28,26.28,0,0,0,26.28,26.28H316.9a26.28,26.28,0,0,0,26.28-26.28V82.41A26.28,26.28,0,0,0,316.9,56.13Zm23.73,360.54A24.65,24.65,0,0,1,316,441.32H184.66A24.65,24.65,0,0,1,160,416.67V83.33a24.65,24.65,0,0,1,24.65-24.65H316a24.65,24.65,0,0,1,24.65,24.65Z"
      transform="translate(-156 -56.13)" fill="#abb2b2"></path>
    <path
      d="M316,58.68H184.66A24.65,24.65,0,0,0,160,83.33V416.67a24.65,24.65,0,0,0,24.65,24.65H316a24.65,24.65,0,0,0,24.65-24.65V83.33A24.65,24.65,0,0,0,316,58.68Zm23.38,357.25a24.12,24.12,0,0,1-24.12,24.12H185.4a24.12,24.12,0,0,1-24.12-24.12V84.07A24.12,24.12,0,0,1,185.4,60H315.24a24.12,24.12,0,0,1,24.12,24.12Z"
      transform="translate(-156 -56.13)"></path>
    <path
      d="M316,441.45H184.66a24.81,24.81,0,0,1-24.78-24.78V83.33a24.81,24.81,0,0,1,24.78-24.78H316a24.81,24.81,0,0,1,24.78,24.78V416.67A24.81,24.81,0,0,1,316,441.45ZM184.66,58.8a24.56,24.56,0,0,0-24.53,24.53V416.67a24.56,24.56,0,0,0,24.53,24.53H316a24.57,24.57,0,0,0,24.53-24.53V83.33A24.57,24.57,0,0,0,316,58.8ZM315.24,440.17H185.4a24.27,24.27,0,0,1-24.24-24.24V84.07A24.27,24.27,0,0,1,185.4,59.83H315.24a24.27,24.27,0,0,1,24.24,24.24V415.93A24.27,24.27,0,0,1,315.24,440.17ZM185.4,60.08a24,24,0,0,0-24,24V415.93a24,24,0,0,0,24,24H315.24a24,24,0,0,0,24-24V84.07a24,24,0,0,0-24-24Z"
      transform="translate(-156 -56.13)"></path>
    <path
      d="M266.73,77.63H233.27a6.81,6.81,0,0,1-6.81-6.82h0A6.81,6.81,0,0,1,233.27,64h33.46a6.81,6.81,0,0,1,6.81,6.81h0A6.81,6.81,0,0,1,266.73,77.63Z"
      transform="translate(-156 -56.13)"></path>
    <circle cx="108.84" cy="14.69" r="2.98" fill="rgba(209,209,209,0.486)"></circle>
  </symbol>
</svg>