<svg xmlns="http://www.w3.org/2000/svg" viewBox="0 0 512.86 1111.23"><g id="Layer_2" data-name="Layer 2"><g id="Layer_1-2" data-name="Layer 1"><path d="M266.61,36.17a11.56,11.56,0,1,1-11.55-11.56A11.55,11.55,0,0,1,266.61,36.17Z" fill="#1a191c"/><path d="M262.15,36.17a7.1,7.1,0,1,1-7.09-7.1A7.09,7.09,0,0,1,262.15,36.17Z"/><path d="M510.7,343.09a2.16,2.16,0,0,0,2.16-2.15V212.5a2.16,2.16,0,0,0-2.16-2.15h-.59V48.49a48.94,48.94,0,0,0-9.65-29.23A47,47,0,0,0,462.76,0H47.35A47,47,0,0,0,9.82,19,48.93,48.93,0,0,0,0,48.49V1062.74c0,26.66,21.3,48.49,47.35,48.49H462.94c.35,0,.7,0,1.06,0s.87,0,1.29,0c.74,0,1.47-.11,2.19-.18h.14a47.15,47.15,0,0,0,32.84-18.77l-.11-.09a48.94,48.94,0,0,0,9.76-29.37V477.05H511a1.91,1.91,0,0,0,1.91-1.9V412.23a1.91,1.91,0,0,0-1.91-1.9h-.84V343.09Zm-11.92,700.28a45.44,45.44,0,0,1-45.3,45.3H59.26a45.43,45.43,0,0,1-45.3-45.3V59.63a45.44,45.44,0,0,1,45.3-45.31H453.48a45.44,45.44,0,0,1,45.3,45.31Z" fill="#abb2b2"/><path d="M461.1,7.37H49C20.94,7.37,3.41,27.42,3.41,53.8V1057.25c0,26.76,15.72,46.6,51.65,46.6H455c35.94,0,51.66-19.84,51.66-46.6V53.8C506.7,27.42,489.17,7.37,461.1,7.37Zm37.68,1036a45.44,45.44,0,0,1-45.3,45.3H59.26a45.43,45.43,0,0,1-45.3-45.3V59.63a45.44,45.44,0,0,1,45.3-45.31H453.48a45.44,45.44,0,0,1,45.3,45.31Z" fill="#010101"/></g></g></svg>